<svg width="71" height="18" viewBox="0 0 71 18" fill="none" xmlns="http://www.w3.org/2000/svg">
<path d="M8.27984 16.96C7.99984 17.04 7.73318 17.08 7.47984 17.08C7.22651 17.0933 6.96651 17.1067 6.69984 17.12C6.44651 17.1333 6.09318 17.14 5.63984 17.14C5.18651 17.14 4.50651 17.1267 3.59984 17.1C3.38651 17.1133 3.17318 17.12 2.95984 17.12C2.74651 17.12 2.54651 17.08 2.35984 17C1.94651 16.8267 1.66651 16.4267 1.51984 15.8C1.45318 15.5067 1.37984 15.3 1.29984 15.18C1.20651 15.06 1.13318 14.9467 1.07984 14.84C0.94651 14.6267 0.959844 14.2733 1.11984 13.78C1.26651 13.2867 1.45984 12.68 1.69984 11.96C1.93984 11.2267 2.21318 10.4533 2.51984 9.64C3.23984 7.70667 3.88651 6.17333 4.45984 5.04C4.68651 4.53333 4.87984 4.09333 5.03984 3.72C5.21318 3.34667 5.36651 3.02667 5.49984 2.76C5.63318 2.48 5.69984 2.33333 5.69984 2.32C5.83318 1.81333 6.34651 1.38667 7.23984 1.04C8.10651 0.679999 8.89318 0.586666 9.59984 0.76C10.3865 0.959999 10.7332 1.48 10.6398 2.32C10.4532 3.14667 10.1732 3.97333 9.79984 4.8C9.43984 5.62667 9.02651 6.49333 8.55984 7.4C8.09318 8.30667 7.58651 9.26667 7.03984 10.28C6.49318 11.2933 5.95318 12.3933 5.41984 13.58C5.40651 13.6333 5.43318 13.68 5.49984 13.72C5.67318 13.7067 5.91318 13.6533 6.21984 13.56C6.53984 13.4667 6.86651 13.3867 7.19984 13.32C7.54651 13.24 7.88651 13.2 8.21984 13.2C8.55318 13.2 8.83318 13.2867 9.05984 13.46C9.04651 13.7 9.10651 13.8933 9.23984 14.04C9.37318 14.1733 9.50651 14.3067 9.63984 14.44C9.97318 14.7867 9.99984 15.2467 9.71984 15.82C9.45318 16.38 8.97318 16.76 8.27984 16.96ZM21.7358 2.44C22.1891 2.68 22.4758 3.03333 22.5958 3.5C22.3291 4.99333 22.0891 6.48 21.8758 7.96C21.6624 9.42667 21.4558 10.66 21.2558 11.66C21.0558 12.6467 20.9158 13.3867 20.8358 13.88C20.7691 14.3733 20.6891 14.8667 20.5958 15.36L20.4758 15.78C20.4491 15.9267 20.4224 16.06 20.3958 16.18C20.3691 16.3133 20.3424 16.4533 20.3158 16.6C19.9424 17.0267 19.4358 17.24 18.7958 17.24C18.1158 17.24 17.5758 17.0667 17.1758 16.72C16.9358 16.5333 16.8958 16.14 17.0558 15.54C17.1224 15.3 17.1624 14.9933 17.1758 14.62C17.2024 14.2333 17.2291 13.9133 17.2558 13.66V13.62C16.8558 13.7667 16.4958 13.96 16.1758 14.2C15.8558 14.4267 15.6558 14.5733 15.5758 14.64C15.4958 14.6933 15.3891 14.74 15.2558 14.78C15.1224 14.8067 15.0024 14.8267 14.8958 14.84C14.6424 14.8533 14.4691 14.8933 14.3758 14.96C13.6024 16.3467 12.9091 17.12 12.2958 17.28C11.9091 17.4 11.5224 17.4267 11.1358 17.36C10.7491 17.3067 10.4424 17.08 10.2158 16.68C9.78911 16.28 9.89578 15.1867 10.5358 13.4C10.8824 12.4533 11.3758 11.32 12.0158 10C12.6691 8.66667 13.2958 7.50667 13.8958 6.52C15.1891 4.4 16.6091 2.61333 18.1558 1.16C18.4091 1.05333 18.6824 0.933332 18.9758 0.799999C19.2691 0.653333 19.5558 0.573333 19.8358 0.56C20.1291 0.546666 20.4291 0.579999 20.7358 0.66C21.0424 0.739999 21.3024 0.859999 21.5158 1.02C22.0091 1.39333 22.0824 1.86667 21.7358 2.44ZM17.4558 7.7C17.1758 8.5 16.8958 9.24 16.6158 9.92C16.3358 10.5867 16.0958 11.1733 15.8958 11.68L17.4758 11.62C17.5824 10.7667 17.7024 9.92 17.8358 9.08C17.9691 8.24 18.0958 7.4 18.2158 6.56L17.4558 7.7ZM16.9158 11.7C17.1024 11.7 17.2891 11.6867 17.4758 11.66V11.64C17.3024 11.6533 17.1424 11.6667 16.9958 11.68C16.8491 11.6933 16.8224 11.7 16.9158 11.7ZM25.4648 16.06C25.3448 16.5933 24.9315 16.92 24.2248 17.04C23.5715 17.16 22.9515 17.0867 22.3648 16.82C21.7115 16.54 21.4248 16.1467 21.5048 15.64C21.4248 14.8667 21.8315 13.1867 22.7248 10.6C24.0582 6.72 25.3915 3.94667 26.7248 2.28C27.0715 1.85333 27.3648 1.58 27.6048 1.46C27.8582 1.32667 28.1448 1.20667 28.4648 1.1C28.7848 0.993333 29.1182 0.893333 29.4648 0.799999C30.1582 0.613332 30.8115 0.486666 31.4248 0.419999C32.0515 0.339999 32.6115 0.413333 33.1048 0.64C33.5982 0.853333 33.9782 1.17333 34.2448 1.6C34.5248 2.02667 34.6982 2.53333 34.7648 3.12C34.8315 3.69333 34.8115 4.3 34.7048 4.94C34.5982 5.56667 34.4048 6.20667 34.1248 6.86C33.8448 7.5 33.4915 8.1 33.0648 8.66C32.1315 9.88667 31.0382 10.68 29.7848 11.04L29.9848 11.38C30.1582 11.6467 30.3648 11.94 30.6048 12.26C30.8582 12.58 31.1048 12.9067 31.3448 13.24C31.5982 13.5733 31.8248 13.9067 32.0248 14.24C32.2248 14.5733 32.3715 14.8867 32.4648 15.18C32.6782 15.8333 32.5115 16.3067 31.9648 16.6C31.5248 16.8667 31.1782 16.9333 30.9248 16.8C30.8182 16.7333 30.7115 16.6467 30.6048 16.54C30.4982 16.4467 30.3515 16.3667 30.1648 16.3C29.3782 16.5267 28.7782 16.3267 28.3648 15.7C28.1115 15.3 27.9182 14.9333 27.7848 14.6C27.6515 14.2667 27.5382 13.9867 27.4448 13.76C27.2048 13.2667 26.9315 12.84 26.6248 12.48C26.4782 12.84 26.3115 13.3 26.1248 13.86C25.8982 14.5667 25.6448 15.3 25.3648 16.06H25.4648ZM29.5048 4.42C29.2515 4.99333 29.0782 5.39333 28.9848 5.62C28.7982 6.07333 28.5915 6.57333 28.3648 7.12C28.3248 7.41333 28.2915 7.62 28.2648 7.74L28.5448 7.46L28.8848 7.3C29.1248 7.16667 29.3448 7.04667 29.5448 6.94C29.7448 6.83333 29.9248 6.7 30.0848 6.54C30.3915 6.23333 30.6582 5.73333 30.8848 5.04C30.8848 4.90667 30.9048 4.77333 30.9448 4.64C30.9982 4.50667 31.0315 4.37333 31.0448 4.24C31.0982 3.94667 30.9782 3.74 30.6848 3.62C30.4182 3.59333 30.0848 3.81333 29.6848 4.28C29.6048 4.37333 29.5448 4.42 29.5048 4.42ZM38.1255 13.48C38.8988 13.56 39.4721 13.6 39.8455 13.6C40.2321 13.6 40.8121 13.5467 41.5855 13.44C41.8255 13.52 41.9655 13.62 42.0055 13.74C42.0455 13.86 42.0588 13.9867 42.0455 14.12C42.0321 14.24 42.0388 14.36 42.0655 14.48C42.0921 14.6 42.2188 14.7 42.4455 14.78C42.5655 14.82 42.5988 14.94 42.5455 15.14C42.5055 15.3267 42.3988 15.5333 42.2255 15.76C41.7855 16.3333 41.2655 16.7333 40.6655 16.96C39.7055 17.2 38.9521 17.34 38.4055 17.38C37.4988 17.4467 36.5121 17.4133 35.4455 17.28C34.2721 17.0667 33.7055 16.58 33.7455 15.82C33.7455 13.02 34.3588 10.2067 35.5855 7.38C35.9855 6.46 36.4388 5.49333 36.9455 4.48C37.0521 4.26667 37.1121 4.02667 37.1255 3.76C37.1521 3.49333 37.1721 3.23333 37.1855 2.98C37.1988 2.72667 37.2388 2.5 37.3055 2.3C37.3721 2.1 37.5121 1.96 37.7255 1.88C40.4988 0.773333 42.6921 0.346666 44.3055 0.599999C44.8655 0.613332 45.2321 0.806666 45.4055 1.18C45.5921 1.54 45.6121 1.94667 45.4655 2.4C45.3321 2.85333 45.0588 3.28 44.6455 3.68C44.2455 4.08 43.7388 4.32667 43.1255 4.42C42.3388 4.64667 41.8588 4.8 41.6855 4.88C41.3521 5.04 41.1121 5.25333 40.9655 5.52C40.7788 5.81333 40.6055 6.09333 40.4455 6.36C40.2855 6.62667 40.1721 6.91333 40.1055 7.22L40.0255 7.66C40.2788 7.78 40.5855 7.82 40.9455 7.78C41.3188 7.72667 41.6588 7.68 41.9655 7.64C42.2855 7.58667 42.5388 7.58 42.7255 7.62C42.9255 7.66 42.9655 7.86 42.8455 8.22C42.7388 8.56667 42.5321 8.96 42.2255 9.4C41.9321 9.84 41.5121 10.16 40.9655 10.36C40.6188 10.4267 40.3788 10.48 40.2455 10.52C40.1255 10.5467 40.0321 10.5667 39.9655 10.58C39.8721 10.5933 39.6055 10.6133 39.1655 10.64C38.5388 11.7067 38.1588 12.5333 38.0255 13.12C37.9721 13.36 38.0055 13.48 38.1255 13.48ZM56.5338 7.88C56.4804 8.45333 56.3738 9.04 56.2138 9.64C56.0671 10.24 55.8471 10.8267 55.5538 11.4C55.2738 11.9733 54.9338 12.5267 54.5338 13.06C54.1471 13.5933 53.7138 14.0867 53.2338 14.54C52.7538 14.9933 52.2404 15.3733 51.6938 15.68C50.5204 16.3733 49.3871 16.62 48.2938 16.42C48.0538 16.94 47.6938 17.2667 47.2138 17.4C46.7471 17.5467 46.2804 17.5467 45.8138 17.4C45.3604 17.2667 44.9604 17.0067 44.6138 16.62C44.2671 16.2333 44.0938 15.7067 44.0938 15.04C44.0938 14.36 44.1404 13.6667 44.2338 12.96C44.3271 12.2533 44.4538 11.5733 44.6138 10.92C44.8671 9.84 45.1804 8.82667 45.5538 7.88C46.4338 5.73333 46.9338 4.22667 47.0538 3.36C47.2271 2.2 47.5471 1.48 48.0138 1.2C48.7871 0.746666 49.5204 0.553332 50.2138 0.619999C50.9071 0.686666 51.5338 0.853332 52.0938 1.12C53.0138 1.56 54.0071 2.3 55.0738 3.34C56.2471 4.47333 56.7338 5.98667 56.5338 7.88ZM48.6738 13.88C49.3538 13.5333 49.9004 13.18 50.3138 12.82C50.7404 12.4467 51.1404 12.1067 51.5138 11.8C52.0871 11.2267 52.5071 10.5467 52.7738 9.76C53.3604 8.02667 52.9871 6.71333 51.6538 5.82C51.4538 5.67333 51.1538 5.47333 50.7538 5.22C50.5671 5.64667 50.4271 6.09333 50.3338 6.56C50.2538 7.02667 50.1404 7.48 49.9938 7.92L49.4538 9.68L49.0138 11.58C48.9871 11.8467 48.9471 12.1067 48.8938 12.36C48.8404 12.6 48.7938 12.8533 48.7538 13.12L48.6738 13.88ZM62.8288 1.52V1.56C62.8288 1.57333 62.8288 1.58 62.8288 1.58C62.8421 1.58 62.8488 1.58667 62.8488 1.6V1.64H62.8688L62.9888 1.96C63.1221 2.34667 62.7754 3.54667 61.9488 5.56C61.0688 7.70667 60.6621 9.38 60.7288 10.58C60.8754 11.4333 61.5888 10.7467 62.8688 8.52C63.8821 6.78667 64.8621 4.88667 65.8088 2.82C65.9288 2.54 66.0554 2.25333 66.1888 1.96C66.3221 1.65333 66.4888 1.4 66.6888 1.2C67.1288 0.72 67.6621 0.593333 68.2888 0.819999C68.5021 0.566665 68.7488 0.393332 69.0288 0.299999C69.3221 0.206666 69.5954 0.186666 69.8488 0.239999C70.1154 0.293332 70.3421 0.419999 70.5288 0.619999C70.7154 0.806666 70.8154 1.06 70.8288 1.38C70.8688 1.64667 70.7288 2.28 70.4088 3.28C70.1021 4.28 69.8154 5.19333 69.5488 6.02C69.2821 6.84667 69.0088 7.74667 68.7288 8.72C68.0488 11.0267 67.5088 13.2 67.1088 15.24C67.0954 15.6667 66.9088 16.02 66.5488 16.3C66.2021 16.58 65.8088 16.76 65.3688 16.84C64.9421 16.9333 64.5354 16.92 64.1488 16.8C63.6821 16.6667 63.4354 16.3333 63.4088 15.8C63.4088 15.6533 63.4021 15.5067 63.3888 15.36C63.4154 15.8133 63.0888 16.2 62.4088 16.52C62.2221 16.6133 62.0488 16.7 61.8888 16.78C60.9554 17.06 59.9754 17 58.9488 16.6C58.4688 16.4 58.0354 16.1333 57.6488 15.8C57.2754 15.4533 57.0154 15.0467 56.8688 14.58C56.4021 13.0867 56.4888 11.1267 57.1288 8.7C57.3954 7.66 57.7221 6.64667 58.1088 5.66C58.4954 4.67333 58.7754 3.96 58.9488 3.52C59.1354 3.08 59.2688 2.78 59.3488 2.62C59.4288 2.44667 59.5154 2.28 59.6088 2.12C59.8354 1.66667 60.0288 1.36 60.1888 1.2L60.4288 0.979999C60.4554 0.953333 60.4821 0.94 60.5088 0.94C60.5354 0.926666 60.5688 0.906666 60.6088 0.879999C60.7154 0.813333 60.8288 0.766666 60.9488 0.74L61.2288 0.679999H61.3488C61.7354 0.626666 62.0688 0.706666 62.3488 0.92C62.3488 0.933333 62.3621 0.94 62.3888 0.94L62.5488 1.08L62.6088 1.14L62.6688 1.22C62.6688 1.23333 62.6688 1.24 62.6688 1.24C62.6821 1.24 62.6888 1.24667 62.6888 1.26L62.7088 1.28V1.32C62.7221 1.32 62.7288 1.32667 62.7288 1.34V1.36C62.7421 1.37333 62.7554 1.38 62.7688 1.38V1.4C62.7688 1.41333 62.7688 1.42 62.7688 1.42C62.7821 1.42 62.7888 1.42667 62.7888 1.44C62.7888 1.44 62.7954 1.44667 62.8088 1.46V1.48C62.8088 1.49333 62.8154 1.50667 62.8288 1.52ZM63.3688 14.84V14.78C63.3554 14.7933 63.3488 14.8467 63.3488 14.94C63.3488 14.9 63.3554 14.8733 63.3688 14.86V14.84Z" fill="white"/>
</svg>
